<svg width="398" height="454" viewBox="0 0 398 454" fill="none" xmlns="http://www.w3.org/2000/svg">
<rect y="31" width="48" height="48" fill="#626F86"/>
<rect y="81" width="48" height="48" fill="#626F86"/>
<rect y="131" width="48" height="48" fill="#626F86"/>
<rect y="231" width="48" height="48" fill="#626F86"/>
<rect y="281" width="48" height="48" fill="#626F86"/>
<rect y="331" width="48" height="48" fill="#626F86"/>
<rect y="381" width="48" height="48" fill="#626F86"/>
<rect x="50" y="31" width="48" height="48" fill="#626F86"/>
<rect x="50" y="81" width="48" height="48" fill="#626F86"/>
<rect x="50" y="281" width="48" height="48" fill="#626F86"/>
<rect x="100" y="181" width="48" height="48" fill="#626F86"/>
<rect x="100" y="281" width="48" height="48" fill="#626F86"/>
<rect x="100" y="381" width="48" height="48" fill="#626F86"/>
<rect x="150" y="81" width="48" height="48" fill="#626F86"/>
<rect x="150" y="181" width="48" height="48" fill="#626F86"/>
<rect x="150" y="281" width="48" height="48" fill="#626F86"/>
<rect x="150" y="381" width="48" height="48" fill="#626F86"/>
<rect x="200" y="81" width="48" height="48" fill="#626F86"/>
<rect x="200" y="181" width="48" height="48" fill="#626F86"/>
<rect x="200" y="281" width="48" height="48" fill="#626F86"/>
<rect x="200" y="381" width="48" height="48" fill="#626F86"/>
<rect x="250" y="181" width="48" height="48" fill="#626F86"/>
<rect x="250" y="281" width="48" height="48" fill="#626F86"/>
<rect x="250" y="381" width="48" height="48" fill="#626F86"/>
<rect x="300" y="31" width="48" height="48" fill="#626F86"/>
<rect x="300" y="131" width="48" height="48" fill="#626F86"/>
<rect x="300" y="181" width="48" height="48" fill="#626F86"/>
<rect x="300" y="381" width="48" height="48" fill="#626F86"/>
<rect x="350" y="31" width="48" height="48" fill="#626F86"/>
<rect x="350" y="231" width="48" height="48" fill="#626F86"/>
<rect x="350" y="281" width="48" height="48" fill="#626F86"/>
<rect x="350" y="331" width="48" height="48" fill="#626F86"/>
<rect x="350" y="381" width="48" height="48" fill="#626F86"/>
<line x1="199" y1="454" x2="199" stroke="#D97008" stroke-width="2"/>
</svg>
